<?xml version="1.0" encoding="utf-8"?>
<!-- Generator: Adobe Illustrator 15.0.0, SVG Export Plug-In . SVG Version: 6.00 Build 0)  -->
<!DOCTYPE svg PUBLIC "-//W3C//DTD SVG 1.1//EN" "http://www.w3.org/Graphics/SVG/1.1/DTD/svg11.dtd">
<svg version="1.1" id="Layer_1" xmlns="http://www.w3.org/2000/svg" xmlns:xlink="http://www.w3.org/1999/xlink" x="0px" y="0px"
	 width="1526.152px" height="453.074px" viewBox="0 0 1526.152 453.074" enable-background="new 0 0 1526.152 453.074"
	 xml:space="preserve">
<g>
	<path fill="#fff" d="M341.172,38.364c-1.629,3.46-5.491,3.631-11.556,2.142c1.086-4.254,5.672-8.363,9.443-6.592
		C340.608,34.633,342.067,36.468,341.172,38.364 M347.428,41.412c2.303-4.913-2.313-9.137-6.205-10.968
		c-7.755-3.646-14.191-0.186-17.329,6.497c-3.54,7.528-0.805,14.222,6.014,17.435c3.188,1.493,6.356,1.906,9.585,1.111
		c0.07-0.729,0.383-2.746,0.081-3.973c-3.359,0.855-5.301,0.483-7.252-0.432c-3.802-1.795-3.892-5.19-3.61-7.498
		C335.872,45.601,345.084,46.375,347.428,41.412 M315.586,44.635c-0.021-0.734,0.04-2.781-0.402-3.958
		c-2.705,1.021-5.069,1.167-7.11,0.498c-4.415-1.453-5.633-6.08-4.003-11.013c1.629-4.974,5.351-7.971,9.766-6.518
		c2.041,0.679,3.842,2.243,5.431,4.622c1.057-0.679,2.203-2.313,2.655-2.881c-1.78-2.902-4.969-4.943-8.308-6.035
		c-6.668-2.192-13.255,1.102-15.78,8.765c-2.514,7.628,0.846,14.191,7.503,16.374C308.666,45.59,312.448,45.857,315.586,44.635
		 M288.953,38.435l2.756-16.017c1.076-6.361-1.659-9.474-6.296-10.269c-4.193-0.709-7.201,0.312-9.081,2.329l0.513-3.048
		l-6.316-1.081l-4.134,24.224l6.316,1.081l2.927-17.178c1.116-1.846,3.077-3.399,6.256-2.851c2.796,0.482,4.033,2.831,3.43,6.341
		l-2.636,15.388L288.953,38.435z M254.698,15.353c-0.171,3.812-3.671,5.481-9.837,6.426c-0.644-4.334,2.002-9.896,6.166-9.72
		C252.736,12.14,254.788,13.251,254.698,15.353 M261.638,15.765c0.231-5.426-5.643-7.548-9.947-7.744
		c-8.559-0.372-13.165,5.305-13.497,12.688c-0.361,8.313,4.747,13.432,12.291,13.758c3.51,0.156,6.587-0.689,9.263-2.665
		c-0.212-0.699-0.704-2.68-1.448-3.696c-2.796,2.092-4.717,2.489-6.859,2.399c-4.214-0.186-5.592-3.284-6.235-5.521
		C252.596,24.078,261.386,21.236,261.638,15.765 M232.22,33.471L230.309,0l-6.396,0.367l1.911,33.471L232.22,33.471z
		 M218.934,34.417l-4.445-33.225l-6.347,0.845l4.456,33.235L218.934,34.417z M196.144,19.506c0.784,3.736-2.183,6.221-7.915,8.68
		c-1.71-4.038-0.543-10.093,3.529-10.947C193.438,16.876,195.701,17.455,196.144,19.506 M202.963,18.164
		c-1.137-5.311-7.353-5.899-11.566-5.004c-8.378,1.77-11.426,8.423-9.887,15.655c1.72,8.136,7.955,11.813,15.328,10.258
		c3.449-0.734,6.205-2.318,8.307-4.913c-0.382-0.619-1.357-2.409-2.323-3.213c-2.172,2.721-3.942,3.596-6.044,4.038
		c-4.124,0.875-6.236-1.78-7.413-3.792C196.284,28.473,204.099,23.52,202.963,18.164 M179.649,39.999
		c-0.463-0.553-1.71-2.183-2.786-2.831c-1.469,2.494-3.219,4.088-5.24,4.837c-4.345,1.64-8.187-1.212-10.007-6.064
		c-1.851-4.903-0.825-9.575,3.53-11.204c2.012-0.754,4.395-0.659,7.131,0.196c0.382-1.187,0.262-3.183,0.251-3.913
		c-3.198-1.146-6.96-0.734-10.259,0.503c-6.557,2.459-9.635,9.157-6.799,16.726c2.826,7.508,9.545,10.525,16.103,8.066
		C174.872,45.078,177.979,42.915,179.649,39.999 M156.748,50.805l-13.175-6.19c-0.654-0.271-0.915-0.91-0.825-1.569l2.133-13.758
		l-6.377,3.339l-0.915,9.535l-8.448-4.632l-5.984,3.128l12.26,6.12c0.725,0.337,1.006,1.081,0.905,1.625l-2.373,14.337l6.497-3.399
		l1.006-9.917l9.062,4.657L156.748,50.805z M130.086,63.005c-0.442-0.639-0.915-1.328-1.448-1.84l-10.118,6.97
		c-0.442,0.302-0.653,0.156-0.885-0.161l-5.662-8.222l7.653-5.28c-0.433-0.714-0.604-0.95-1.106-1.68
		c-0.442-0.639-0.885-1.287-1.377-1.835l-7.624,5.255l-5.22-7.573c-0.241-0.367-0.312-0.629,0.131-0.925l10.117-6.98
		c-0.291-0.684-0.764-1.373-1.207-2.012c-0.502-0.729-0.633-0.925-1.187-1.624l-13.055,9.001c-2.011,1.388-2.202,3.253-0.733,5.386
		l14.473,20.985c1.468,2.132,3.288,2.61,5.29,1.227l13.064-9.012C130.729,63.936,130.589,63.739,130.086,63.005 M78.602,65.213
		c-1.86,0.02-4.324,0.638-6.789,3.148c-4.003,4.098-1.78,8.745,1.408,11.868l17.892,17.525l4.485-4.571l-11.636-11.41l2.836-2.907
		c-0.393-0.855-1.649-2.987-2.243-3.57l-3.53,3.601l-4.405-4.315c-1.187-1.162-2.071-3.188-0.774-4.531
		c1.277-1.287,2.555-1.192,3.279-1.308C79.186,67.631,78.924,66.078,78.602,65.213 M73.503,99.031
		c3.962,3.193,5.712,7.573,2.946,10.993c-2.796,3.47-7.412,2.635-11.365-0.568c-3.922-3.173-5.712-7.508-2.907-10.968
		C64.944,95.068,69.58,95.863,73.503,99.031 M77.637,93.997c-6.356-5.139-13.789-4.038-18.617,1.936
		c-4.838,5.984-4.385,13.512,1.971,18.652c6.467,5.229,13.778,3.973,18.616-2.012C84.436,106.604,84.104,99.227,77.637,93.997
		 M59.754,139.899l-14.694-6.925c-5.853-2.746-9.564-0.935-11.576,3.319c-1.8,3.852-1.629,7.025-0.181,9.374l-2.796-1.308
		l-2.726,5.798l22.227,10.459l2.726-5.798l-15.76-7.423c-1.479-1.559-2.454-3.862-1.076-6.789c1.207-2.564,3.802-3.118,7.02-1.604
		l14.131,6.653L59.754,139.899z M34.249,167.975c4.828,1.584,8.026,5.054,6.638,9.238c-1.388,4.229-6.004,5.084-10.832,3.49
		c-4.788-1.574-7.986-4.994-6.598-9.228C24.834,167.291,29.461,166.386,34.249,167.975 M36.33,161.805
		c-7.764-2.555-14.332,1.101-16.726,8.393c-2.414,7.302,0.684,14.191,8.438,16.746c7.915,2.604,14.302-1.162,16.695-8.463
		C47.152,171.188,44.235,164.399,36.33,161.805 M39.016,196.337l-24.108-4.747l-1.237,6.291l24.108,4.747L39.016,196.337z
		 M8.451,190.167c-1.881-0.362-3.661,0.835-4.023,2.701c-0.362,1.871,0.814,3.706,2.695,4.068c1.871,0.367,3.701-0.854,4.073-2.73
		C11.569,192.329,10.322,190.539,8.451,190.167 M35.073,206.892c-0.916,0.277-2.303,1.051-3.118,1.79
		c0.352,0.639,1.288,1.589,1.066,3.39c-0.231,1.846-2.364,2.429-4.063,2.228l-13.376-1.609l0.502-4.088
		c-0.664-0.669-2.735-1.504-3.932-1.8l-0.644,5.396l-8.891-1.061c0.05,2.027,0.583,4.642,1.851,6.673l22.217,2.665
		c4.476,0.538,9.484-0.639,10.168-6.321C37.276,210.664,36.229,208.355,35.073,206.892 M34.721,228.591l-24.541-1.082l-0.292,6.407
		l24.55,1.071L34.721,228.591z M3.573,227.078c-1.901-0.091-3.48,1.357-3.57,3.264c-0.081,1.906,1.368,3.535,3.278,3.615
		c1.901,0.096,3.541-1.398,3.621-3.304C6.982,228.747,5.494,227.163,3.573,227.078 M22.36,249.008
		c5.18-0.302,9.193,1.961,9.384,5.381c0.181,3.369-3.53,6.084-8.7,6.376c-5.23,0.312-8.549-1.961-8.75-5.381
		C14.104,251.965,17.131,249.31,22.36,249.008 M34.168,241.113c-0.905,0.453-3.953,1.207-6.738,1.378l-26.673,1.519l0.362,6.407
		l12.311-0.704c-2.384,2.042-3.219,4.536-3.078,6.98c0.332,5.813,4.999,11.083,13.064,10.621
		c8.006-0.453,12.733-6.166,12.401-12.079c-0.191-3.168-2.183-5.461-4.546-6.547c1.066-0.061,2.273-0.422,3.289-0.825
		L34.168,241.113z M27.53,280.156c4.304-0.915,8.025,1.76,8.74,5.099c0.422,1.971-0.694,3.098-2.374,3.46
		c-1.77,0.372-4.405,0.432-6.437-2.998c-0.624-1.066-2.524-3.409-3.761-4.747L27.53,280.156z M36.33,270.692
		c-1.8,1.136-4.908,2.333-6.487,2.675l-9.001,1.911c-7.372,1.549-7.965,7.241-7,11.828c0.734,3.46,2.544,7.523,5.189,10.108
		c0.745-0.312,2.454-1.418,3.219-2.323c-1.579-1.328-3.349-3.742-3.963-6.668c-0.674-3.168-0.211-5.209,1.74-5.723
		c1.177-0.302,2.363,1.046,3.691,3.561c3.782,7.161,7.814,9.655,12.602,8.639c3.017-0.633,5.26-3.711,4.465-7.442
		c-0.624-2.967-1.328-6.276-6.749-8.479c0.966-0.201,2.836-1.046,3.661-1.629L36.33,270.692z M18.579,304.686
		c-0.03,1.247,0.161,2.534,0.573,3.741c1.046,2.997,3.601,4.707,6.165,5.059c-1.016,0.362-2.082,1.036-2.937,1.7l2.202,6.376
		c0.754-0.684,3.47-2.253,6.115-3.158l16.786-5.833l-2.102-6.055l-11.646,4.053c-4.908,1.7-9.313,0.795-10.439-2.444
		c-0.402-1.167-0.785-2.575-0.302-3.882C21.083,304.123,20.198,304.284,18.579,304.686 M20.198,329.668
		c-0.805,0.362-1.157,0.533-1.911,0.986l10.47,22.649c0.825-0.312,1.187-0.483,1.981-0.845c0.704-0.332,1.378-0.644,2.001-1.026
		l-3.922-8.509l26.471-12.23l-2.836-6.135l-26.471,12.24l-3.681-7.956C21.576,329.025,20.912,329.337,20.198,329.668"/>
	<path fill="#D27228" d="M454.218,239.991c0-62.678-27.064-119.035-70.15-158.028c34.215,37.811,55.074,87.942,55.074,142.952
		c0,117.688-95.415,213.083-213.098,213.083c-55.004,0-105.13-20.849-142.937-55.064c38.993,43.076,95.335,70.141,158.023,70.141
		C358.823,453.074,454.218,357.668,454.218,239.991"/>
	<path fill="#fff" d="M387.135,329.136l6.487-36.8c0,0,1.056-6.035-4.979-6.035h-13.075c0.04-1.649,0.081-3.339,0.091-5.049
		c0-62.809-37.042-116.918-90.437-141.8l-24.179,41.875c0,0-3.007,5.225,2.575,7.508c31.711,12.989,58.012,49.613,58.012,92.418
		c0,1.71-0.212,3.359-0.303,5.049H216.379c0,0-6.034,0-7.101,6.035l-6.487,36.8c0,0-1.065,6.034,4.969,6.034h172.274
		C380.034,335.17,386.068,335.17,387.135,329.136"/>
	<path fill="#fff" d="M119.174,171.555C93.175,196.96,74.87,233.514,72.326,274.413h48.165c0,0,6.044,0,6.607-6.004
		c1.941-20.266,12.331-40.2,26.884-55.392L119.174,171.555z"/>
	<path fill="#fff" d="M143.302,110.964c0,0-3.883-4.626-9.183-1.559l-32.365,18.682c0,0-5.3,3.063-1.428,7.689l115.47,137.601
		c0,0,3.882,4.626,9.183,1.559l32.364-18.687c0,0,5.311-3.057,1.429-7.684L143.302,110.964z"/>
	<path fill="#fff" d="M284.961,88.023l-12.28-7.085l2.716-4.687c0,0,2.232-3.862-1.63-6.084l-0.704-0.402
		c0,0-3.861-2.233-6.084,1.629l-2.706,4.687l-1.388-0.794c0,0-5.22-3.017-8.237,2.203l-48.497,83.99c0,0-3.018,5.23,2.213,8.247
		l1.388,0.795l-2.716,4.697c0,0-2.223,3.852,1.63,6.075l0.714,0.412c0,0,3.853,2.223,6.075-1.639l2.705-4.687l12.28,7.085
		l-2.716,4.687c0,0-2.223,3.862,1.63,6.09l0.703,0.397c0,0,3.862,2.238,6.085-1.624l2.706-4.687l1.388,0.795
		c0,0,5.229,3.017,8.237-2.208l48.497-83.985c0,0,3.017-5.229-2.203-8.247l-1.397-0.794l2.715-4.697c0,0,2.223-3.852-1.629-6.075
		l-0.704-0.413c0,0-3.862-2.228-6.085,1.635L284.961,88.023z"/>
	<path fill="#fff" d="M1458.134,148.523l24.862,62.432c0.834,1.679,0.975,2.655,0.975,3.354c0,0.834-0.422,1.815-1.126,3.072
		c-2.363,4.602-6.135,8.66-9.343,10.751c-3.5,2.515-7.131,4.048-10.068,4.748l3.912,14.538c4.325-0.573,11.325-2.806,18.023-8.81
		c8.097-6.985,14.383-18.294,23.736-43.72l17.047-46.365h-18.445l-10.601,36.313c-1.257,4.471-2.515,9.495-3.641,13.412h-0.423
		c-0.976-3.917-2.363-9.087-3.771-13.266l-12.28-36.458H1458.134z M1421.223,135.947v12.577h-9.786v12.854h9.786v31.978
		c0,8.936,1.67,15.086,5.301,18.999c3.218,3.495,8.519,5.728,14.814,5.728c5.441,0,9.906-0.845,12.431-1.82l-0.292-13.125
		c-1.951,0.558-3.489,0.834-6.697,0.834c-6.568,0-8.801-4.325-8.801-12.572v-30.021h16.344v-12.854h-16.344v-17.459
		L1421.223,135.947z M1395.375,120.172c-5.723,0-9.635,4.043-9.635,9.358c0,5.159,3.771,9.217,9.494,9.217
		c6.004,0,9.786-4.058,9.786-9.217C1404.879,124.215,1401.238,120.172,1395.375,120.172 M1404.045,148.523h-17.329v68.024h17.329
		V148.523z M1328.482,213.188c5.02,2.791,12.432,4.893,20.669,4.893c18.013,0,27.647-9.082,27.647-21.372
		c-0.131-10.058-5.854-16.343-18.153-20.814c-8.659-3.067-11.878-5.169-11.878-9.494c0-4.189,3.359-7.126,9.504-7.126
		c6.004,0,11.455,2.233,14.393,3.913l3.349-12.149c-3.912-2.092-10.479-4.048-18.013-4.048c-15.79,0-25.707,9.349-25.707,21.367
		c-0.131,7.96,5.441,15.222,18.707,19.838c8.389,2.922,11.174,5.3,11.174,9.907c0,4.47-3.339,7.548-10.882,7.548
		c-6.146,0-13.558-2.514-17.47-4.893L1328.482,213.188z M1287.137,216.547h17.178v-35.201c0-1.956,0.282-3.771,0.563-5.305
		c1.528-7.684,7.121-13,15.358-13c2.092,0,3.63,0.282,5.028,0.568v-16.208c-1.398-0.282-2.363-0.413-4.043-0.413
		c-7.262,0-15.228,4.878-18.587,14.518h-0.553l-0.553-12.984h-14.956c0.423,6.146,0.563,12.708,0.563,21.925V216.547z
		 M1247.188,158.717c-10.62,0-15.086,9.64-15.78,16.625h29.891C1261.43,169.061,1258.644,158.717,1247.188,158.717
		 M1276.938,187.351h-45.53c0.412,12.295,10.058,17.601,20.949,17.601c7.966,0,13.688-1.122,18.858-3.073l2.515,11.868
		c-5.874,2.379-13.971,4.335-23.746,4.335c-22.066,0-35.061-13.688-35.061-34.502c0-18.858,11.456-36.589,33.24-36.589
		c22.207,0,29.338,18.154,29.338,33.099C1277.502,183.302,1277.22,185.817,1276.938,187.351 M1146.634,148.523l25.274,68.024h16.896
		l25.988-68.024h-18.163l-10.762,34.502c-1.811,6.135-3.349,11.45-4.597,17.032h-0.422c-1.258-5.582-2.666-11.028-4.606-17.032
		l-11.043-34.502H1146.634z M1131.396,120.172c-5.723,0-9.625,4.043-9.625,9.358c0,5.159,3.771,9.217,9.494,9.217
		c6.005,0,9.776-4.058,9.776-9.217C1140.901,124.215,1137.271,120.172,1131.396,120.172 M1140.057,148.523h-17.319v68.024h17.319
		V148.523z M1047.045,216.547h17.319v-39.948c0-1.956,0.13-4.048,0.704-5.592c1.81-5.165,6.557-10.053,13.406-10.053
		c9.354,0,12.984,7.402,12.984,17.178v38.415h17.178v-40.371c0-21.508-12.29-29.187-24.158-29.187
		c-11.314,0-18.727,6.427-21.644,11.727h-0.422l-0.835-10.193h-15.097c0.423,5.869,0.563,12.431,0.563,20.246V216.547z
		 M963.045,122.404v53.913c0,29.609,14.11,41.764,35.905,41.764c22.619,0,37.564-12.854,37.564-41.904v-53.772h-17.178v54.894
		c0,18.436-7.402,26.954-19.834,26.954c-11.596,0-19.28-8.519-19.28-26.954v-54.894H963.045z M857.794,216.547h17.318v-39.948
		c0-1.956,0.142-4.048,0.704-5.592c1.811-5.165,6.558-10.053,13.407-10.053c9.353,0,12.983,7.402,12.983,17.178v38.415h17.179
		v-40.371c0-21.508-12.28-29.187-24.158-29.187c-11.314,0-18.717,6.427-21.653,11.727h-0.423l-0.825-10.193H857.23
		c0.422,5.869,0.563,12.431,0.563,20.246V216.547z M829.2,192.651c0,1.126-0.131,2.524-0.553,3.782
		c-1.539,4.883-6.567,9.353-13.407,9.353c-5.451,0-9.775-3.072-9.775-9.776c0-10.339,11.596-12.984,23.735-12.708V192.651z
		 M846.941,216.547c-0.693-4.194-0.976-10.198-0.976-16.343v-24.585c0-14.81-6.286-28.629-28.07-28.629
		c-10.751,0-19.562,2.932-24.591,6.004l3.359,11.174c4.606-2.937,11.587-5.029,18.295-5.029c12.009,0,13.829,7.397,13.829,11.868
		v1.121c-25.134-0.146-40.371,8.519-40.371,25.697c0,10.339,7.685,20.256,21.372,20.256c8.801,0,15.921-3.771,20.115-9.082h0.423
		l1.106,7.548H846.941z M745.824,216.547h-17.179v-94.143h17.179V216.547z M718.739,185.258h-35.613v-11.873h35.613V185.258z
		 M643.026,170.449c0-9.217-0.141-15.78-0.553-21.925h14.945l0.553,12.984h0.554c3.359-9.64,11.324-14.518,18.586-14.518
		c1.68,0,2.655,0.131,4.043,0.413v16.208c-1.388-0.287-2.927-0.568-5.028-0.568c-8.237,0-13.819,5.315-15.358,13
		c-0.281,1.534-0.563,3.349-0.563,5.305v35.201h-17.179V170.449z M612.312,192.651c0,1.126-0.151,2.524-0.573,3.782
		c-1.529,4.883-6.558,9.353-13.407,9.353c-5.451,0-9.775-3.072-9.775-9.776c0-10.339,11.596-12.984,23.756-12.708V192.651z
		 M630.043,216.547c-0.705-4.194-0.977-10.198-0.977-16.343v-24.585c0-14.81-6.285-28.629-28.08-28.629
		c-10.751,0-19.552,2.932-24.58,6.004l3.359,11.174c4.605-2.937,11.586-5.029,18.284-5.029c12.019,0,13.839,7.397,13.839,11.868
		v1.121c-25.144-0.146-40.371,8.519-40.371,25.697c0,10.339,7.674,20.256,21.362,20.256c8.811,0,15.941-3.771,20.115-9.082h0.423
		l1.126,7.548H630.043z M527.104,134.413c-5.029,0-7.956,0.276-9.776,0.699v25.697h8.801c11.867,0,18.576-5.582,18.576-13.542
		C544.705,138.461,537.996,134.413,527.104,134.413 M517.328,204.116c2.243,0.413,5.17,0.413,9.072,0.413
		c11.043,0,20.818-4.194,20.818-15.78c0-10.897-9.494-15.363-21.371-15.363h-8.52V204.116z M546.385,165.702v0.277
		c9.916,2.514,18.988,10.339,18.988,23.328c0,8.383-3.631,14.945-9.072,19.411c-6.698,5.874-17.741,8.795-34.919,8.795
		c-9.494,0-16.756-0.689-21.091-1.252v-92.599c5.441-1.122,15.357-1.956,25.003-1.956c12.702,0,20.527,1.534,26.954,6.004
		c5.863,3.49,9.786,9.64,9.786,17.6C562.034,153.97,556.583,161.93,546.385,165.702 M757.188,210.447c0,0,0.061,6.1,6.417,6.1h12.17
		v-0.03h10.812l-5.833-13.401h-6.256v-85.675h-17.31V210.447"/>
	<path fill="#fff" d="M1524.734,332.143l-21.292-27.638c12.421-5.713,18.626-17.45,18.626-35.181v-9.011h-18.767v16.112
		c0,5.713-0.644,10.299-1.931,13.739c-1.177,2.957-2.515,4.425-3.983,4.425c-0.995,0-1.881-0.483-2.665-1.469l-24.832-32.807
		h-18.918c-0.996,0-1.479,0.281-1.479,0.885c0,0.393,0.151,0.785,0.442,1.187l21.282,27.919
		c-12.32,5.632-18.476,17.349-18.476,35.181v9.031h18.626v-16.122c0-5.803,0.694-10.389,2.072-13.749
		c1.086-2.957,2.464-4.425,4.144-4.425c0.784,0,1.559,0.493,2.354,1.469l24.831,32.827h18.777c1.188,0,1.771-0.302,1.771-0.905
		C1525.317,333.42,1525.116,332.938,1524.734,332.143 M1442.847,334.516h-18.919v-74.204h18.919V334.516z M1413.137,280.256
		c0-13.306-6.115-19.944-18.335-19.944h-17.882c-0.201,2.555-0.302,4.476-0.302,5.753c0,2.273,0.101,4.586,0.302,6.959h9.012
		c5.611,0,8.428,3.641,8.428,10.933v36.508c0,0.986-0.493,1.479-1.479,1.479h-19.813c-0.19,1.086-0.292,3.299-0.292,6.658
		c0,2.655,0.051,4.626,0.151,5.914h32.083c5.411,0,8.127-2.957,8.127-8.88V280.256z M1365.303,297.264
		c-5.028,2.856-11.324,4.868-18.918,6.054v-43.005h18.918V297.264z M1337.665,321.944h-15.367c3.842-2.172,6.89-6.356,9.162-12.562
		c1.972-5.32,2.957-10.691,2.957-16.122c0-9.746-2.032-17.48-6.065-23.193c-4.727-6.517-11.928-9.755-21.572-9.755h-31.641
		c-0.091,1.86-0.142,3.932-0.142,6.195c0,2.374,0.051,4.485,0.142,6.366h23.795c10.642,0,15.972,8.036,15.972,24.088
		c0,7-1.187,12.712-3.55,17.148c-2.756,5.22-6.9,7.834-12.422,7.834h-25.425c-0.091,1.67-0.141,3.742-0.141,6.206
		c0,2.564,0.05,4.687,0.141,6.366h64.156C1338.35,330.272,1338.35,326.088,1337.665,321.944 M1264.939,334.516h-18.777v-47.602
		c0-9.263-4.385-13.89-13.145-13.89h-23.947c-0.402-1.971-0.593-4.093-0.593-6.356c0-2.374,0.19-4.496,0.593-6.356h30.152
		c17.148,0,25.717,8.126,25.717,24.379V334.516z M1184.601,297.847c0,17.339-5.763,26.019-17.288,26.019
		c-6.125,0-10.742-2.766-13.9-8.277c-2.564-4.626-3.852-10.541-3.852-17.742c0-16.746,5.773-25.124,17.309-25.124
		C1178.688,272.723,1184.601,281.101,1184.601,297.847 M1203.82,297.264c0-10.158-2.323-18.526-6.959-25.124
		c-5.411-7.896-13.396-11.828-23.938-11.828h-43.307c-0.493,4.425-0.443,8.669,0.141,12.712h14.492
		c-4.053,2.655-7.342,6.538-9.906,11.667c-2.564,5.129-3.842,10.5-3.842,16.112c0,11.436,3.49,20.356,10.49,26.753
		c6.607,6.215,15.377,9.313,26.32,9.313c10.631,0,19.25-3.339,25.857-10.047C1200.26,319.631,1203.82,309.775,1203.82,297.264
		 M1119.408,297.264c-5.028,2.856-11.324,4.868-18.918,6.054v-43.005h18.918V297.264z M1090.292,286.17
		c0-8.86-2.414-15.619-7.241-20.246c-3.942-3.751-8.72-5.612-14.332-5.612c-9.162,0-16.564,2.454-22.177,7.382
		c0.292,1.288,1.137,3.108,2.515,5.472c1.378,2.363,2.514,3.942,3.399,4.737c2.856-2.374,5.813-3.55,8.87-3.55
		c6.407,0,9.605,4.385,9.605,13.145v10.651c0,17.038-4.979,25.566-14.936,25.566c-11.134,0-16.705-8.025-16.705-24.098v-39.304
		h-18.918v41.095c0,23.444,11.877,35.181,35.623,35.181c10.842,0,19.271-3.168,25.284-9.474c6.005-6.296,9.012-15.71,9.012-28.222
		V286.17z M1009.591,334.516h-18.777v-46.124c0-5.712-1.126-9.715-3.399-11.968c-2.263-2.273-6.014-3.399-11.234-3.399h-14.332
		v40.049c0,7.201-2.172,12.813-6.507,16.856c-3.952,3.641-8.82,5.471-14.634,5.471c-5.229,0-8.961-0.503-11.233-1.488
		c0-4.526,0.784-8.67,2.363-12.411c1.076,0.785,2.464,1.177,4.134,1.177c1.68,0,3.278-0.774,4.817-2.364
		c1.519-1.569,2.283-3.741,2.283-6.497V266.81c0-4.335,2.122-6.497,6.356-6.497h31.479c19.129,0,28.684,9.112,28.684,27.336V334.516
		z M886.548,321.944H871.18c3.843-2.172,6.9-6.356,9.163-12.562c1.961-5.32,2.957-10.691,2.957-16.122
		c0-9.746-2.022-17.48-6.055-23.193c-4.737-6.517-11.929-9.755-21.594-9.755h-31.62c-0.111,1.86-0.161,3.932-0.161,6.195
		c0,2.374,0.05,4.485,0.161,6.366h23.785c10.651,0,15.972,8.036,15.972,24.088c0,7-1.177,12.712-3.551,17.148
		c-2.755,5.22-6.899,7.834-12.421,7.834h-25.415c-0.101,1.67-0.161,3.742-0.161,6.206c0,2.564,0.061,4.687,0.161,6.366h64.146
		C887.242,330.272,887.242,326.088,886.548,321.944 M813.822,334.516h-18.768v-47.602c0-9.263-4.385-13.89-13.165-13.89h-23.937
		c-0.393-1.971-0.594-4.093-0.594-6.356c0-2.374,0.201-4.496,0.594-6.356h30.152c17.148,0,25.717,8.126,25.717,24.379V334.516z
		 M751.809,291.641h-47.16c-0.19,2.867-0.281,4.737-0.281,5.623c0,2.072,0.141,4.334,0.442,6.799h46.857
		c0.393-3.46,0.584-5.914,0.584-7.402C752.251,295.976,752.109,294.307,751.809,291.641 M696.673,332.143
		c0.402,0.795,0.594,1.277,0.594,1.469c0,0.603-0.594,0.905-1.771,0.905h-18.777l-24.832-32.827
		c-0.784-0.976-1.578-1.469-2.363-1.469c-1.68,0-3.057,1.469-4.144,4.425c-1.378,3.359-2.062,7.945-2.062,13.749v16.122h-18.627
		v-9.031c0-17.832,6.155-29.549,18.477-35.181l-21.282-27.919c-0.302-0.402-0.442-0.794-0.442-1.187
		c0-0.604,0.493-0.885,1.479-0.885h18.918l24.832,32.807c0.784,0.986,1.67,1.469,2.655,1.469c1.488,0,2.815-1.469,3.992-4.425
		c1.277-3.44,1.921-8.026,1.921-13.739v-16.112h18.777v9.011c0,17.731-6.215,29.468-18.626,35.181L696.673,332.143z
		 M614.785,260.313h-18.918v43.005c7.594-1.187,13.89-3.198,18.918-6.054V260.313z M560.385,260.313
		c16.756,0,25.133,8.951,25.133,26.894c0,13.296-4.485,24.711-13.446,34.215c-8.972,9.515-19.311,14.362-31.048,14.563
		c-0.492-2.163-0.492-6.356,0-12.562c7.011-0.694,12.984-4.536,17.963-11.526c4.979-7.01,7.463-14.734,7.463-23.212
		c0-10.45-5.129-15.66-15.368-15.66h-13.598c-7,0-10.5-4.445-10.5-13.316v-22.016h18.777v18.324c0,2.867,1.036,4.295,3.098,4.295
		H560.385z M520.034,260.313h-18.918V356.1h18.918V260.313z"/>
</g>
</svg>
